<svg height="512" viewBox="0 0 58 58" width="512" xmlns="http://www.w3.org/2000/svg"><g id="025---Milling" fill="none" transform="translate(-1 -1)"><path id="Shape" d="m37 25v21l3 2 3-2v-21z" fill="#a5a5a4"/><path id="Shape" d="m34 13-5 3 6.71 11.5c.1775523.3075445.5048889.4978565.86.5h6.86c.3551111-.0021435.6824477-.1924555.86-.5l6.71-11.5c-14.4-2.4-10.7-1.74-17-3z" fill="#bdc3c7"/><path id="Shape" d="m50.5 46h7.5c.5522847 0 1 .4477153 1 1v11c0 .5522847-.4477153 1-1 1h-56c-.55228475 0-1-.4477153-1-1v-11c0-.5522847.44771525-1 1-1h7.5c.7843134.0203657 1.4842791.4974373 1.79 1.22 1.56 3.28 9.34 5.78 18.71 5.78s17.15-2.5 18.71-5.78c.3057209-.7225627 1.0056866-1.1996343 1.79-1.22z" fill="#e4c05c"/><path id="Shape" d="m43 31v5l-6 4v-5z" fill="#7f8284"/><path id="Shape" d="m43 41v5l-3 2-3-2v-1z" fill="#7f8284"/><g fill="#f3d55b"><path id="Shape" d="m33 46c-.265803.0015368-.5212812-.1028135-.71-.29l-8-8c-.2536586-.2536586-.3527235-.623374-.259878-.969878.0928454-.3465041.3634959-.6171546.71-.71.346504-.0928455.7162194.0062194.969878.259878l8 8c.2884599.2860905.3751619.7182668.219371 1.0934815-.155791.3752147-.5231059.6188811-.929371.6165185z"/><path id="Shape" d="m47 46c-.4062651.0023626-.77358-.2413038-.929371-.6165185-.1557909-.3752147-.0690889-.807391.219371-1.0934815l8-8c.2536586-.2536586.623374-.3527235.969878-.259878.3465041.0928454.6171546.3634959.71.71.0928455.346504-.0062194.7162194-.259878.969878l-8 8c-.1887188.1871865-.444197.2915368-.71.29z"/><circle id="Oval" cx="22" cy="34" r="1"/><circle id="Oval" cx="58" cy="34" r="1"/><path id="Shape" d="m33 39c-.304272-.0014028-.5913526-.1412626-.78-.38l-4-5c-.2591791-.2745753-.3416065-.6717212-.2131034-1.0267597s.4460237-.6074267.8209007-.6525109c.3748771-.0450841.7431847.1248237.9522027.4392706l4 5c.2371517.3001041.2823411.7091964.1164082 1.0538262s-.5139159.5644168-.8964082.5661738z"/><path id="Shape" d="m47 39c-.3824923-.001757-.7304753-.221544-.8964082-.5661738s-.1207435-.7537221.1164082-1.0538262l4-5c.1652201-.2089813.4069976-.3433986.6717023-.373436s.5304531.0467883.7382977.213436c.4257366.3464209.4926824.9712485.15 1.4l-4 5c-.1886474.2387374-.475728.3785972-.78.38z"/><path id="Shape" d="m17.26 42.74c-.7484012.258244-1.5786916.0507125-2.1175731-.5292884-.5388815-.580001-.6849083-1.4232848-.3724269-2.1507116 1.2009193-2.5715346.1541299-5.6324-2.37-6.93-4.33683526-2.2759937-6.14081447-7.5430863-4.11-12 1.20650955-2.5712316.15836384-5.6360627-2.37-6.93-4.33274143-2.2795017-6.13542958-7.54282476-4.11-12 .43914433-1.013362 1.61655568-1.47895432 2.63-1.04.99233913.45421898 1.43733358 1.62010442 1 2.62-1.20503033 2.57385631-.15214273 5.63961726 2.38 6.93 4.3248908 2.2864613 6.1216098 7.545151 4.1 12-1.1953659 2.5718305-.1499207 5.6287653 2.37 6.93 4.3368353 2.2759937 6.1408145 7.5430863 4.11 12-.212396.5079483-.6247924.9058746-1.14 1.1z"/></g><path id="Shape" d="m22 28c-.8685898-.0038627-1.6353885-.5679195-1.8977148-1.3959581-.2623263-.8280387.0397985-1.7307351.7477148-2.2340419.19-.16 1.59-1.4.29-4.63-.4086907-1.0272496.0927504-2.1913093 1.12-2.6s2.1913093.0927504 2.6 1.12c2.57 6.43-1.57 9.29-1.75 9.4-.3282464.2205862-.7145221.3389049-1.11.34z" fill="#e4c05c"/><path id="Shape" d="m1.25 34c.42113048-.7755873 1.30084504-1.1834598 2.16489728-1.0037369.86405223.1797229 1.50816498.9045514 1.58510272 1.7837369 0 .24.45 2.06 3.91 2.48 1.1045695.1353098 1.8903098 1.1404305 1.755 2.245s-1.1404305 1.8903098-2.245 1.755c-6.88-.87-7.42-5.88-7.42-6.09-.04556137-.4067821.04216926-.8173615.25-1.17z" fill="#e4c05c"/><path id="Shape" d="m6 56h-1c-.55228475 0-1-.4477153-1-1s.44771525-1 1-1h1c.55228475 0 1 .4477153 1 1s-.44771525 1-1 1z" fill="#b19046"/><path id="Shape" d="m17 56h-7c-.55228475 0-1-.4477153-1-1s.44771525-1 1-1h7c.5522847 0 1 .4477153 1 1s-.4477153 1-1 1z" fill="#b19046"/><path id="Shape" d="m51 16v-8h-22v8z" fill="#3b97d3"/><rect id="Rectangle-path" fill="#2980ba" height="9" rx="1" width="32" x="24" y="1"/><path id="Shape" d="m29 1v3c0 .55228475-.4477153 1-1 1s-1-.44771525-1-1v-3z" fill="#285680"/><path id="Shape" d="m33 1v3c0 .55228475-.4477153 1-1 1s-1-.44771525-1-1v-3z" fill="#285680"/><path id="Shape" d="m37 1v3c0 .55228475-.4477153 1-1 1s-1-.44771525-1-1v-3z" fill="#285680"/><path id="Shape" d="m41 1v3c0 .55228475-.4477153 1-1 1s-1-.44771525-1-1v-3z" fill="#285680"/><path id="Shape" d="m45 1v3c0 .55228475-.4477153 1-1 1s-1-.44771525-1-1v-3z" fill="#285680"/><path id="Shape" d="m49 1v3c0 .55228475-.4477153 1-1 1s-1-.44771525-1-1v-3z" fill="#285680"/><path id="Shape" d="m53 1v3c0 .55228475-.4477153 1-1 1s-1-.44771525-1-1v-3z" fill="#285680"/></g></svg>