<?xml version="1.0"?>
<svg xmlns="http://www.w3.org/2000/svg" xmlns:xlink="http://www.w3.org/1999/xlink" xmlns:svgjs="http://svgjs.com/svgjs" version="1.1" width="512" height="512" x="0" y="0" viewBox="0 0 511.997 511.997" style="enable-background:new 0 0 512 512" xml:space="preserve"><g>
<g xmlns="http://www.w3.org/2000/svg">
	<g>
		<path d="M53.34,0v501.341h21.328c0,5.875,4.781,10.656,10.671,10.656c5.89,0,10.664-4.781,10.664-10.656h319.999    c0,5.875,4.781,10.656,10.656,10.656c5.906,0,10.688-4.781,10.688-10.656h21.312V0H53.34z M74.668,21.336h234.679v85.328h-10.688    c0-22.055,0-53.304,0-53.328c0-5.891-14.312-10.672-31.992-10.672c-17.672,0-32,4.781-32,10.672c0,0.023,0,31.273,0,53.328h-14.21    l-7.117-42.75l10.664-21.25h-64l10.664,21.25l-7.117,42.75h-14.21v-64h-64v64H74.668V21.336z M277.348,64.812v41.852h-0.001    h-21.344V64.812c2.813-0.461,6.422-0.812,10.665-0.812C270.918,64,274.52,64.352,277.348,64.812z M198.823,106.664h-13.64    l6.531-39.242l0.289-1.742l0.289,1.742L198.823,106.664z M128.003,64v42.664h-21.336V64H128.003z M309.348,479.997H74.668V341.343    h10.671h64h10.664h64h10.664h63.993h10.688V479.997z M110.512,319.999l6.539-39.25l0.289-1.734l0.289,1.734l6.531,39.25H110.512z     M181.339,319.999v-41.844c2.812-0.469,6.422-0.812,10.664-0.812s7.852,0.344,10.664,0.812v41.844H181.339z M256.003,319.999    v-42.656h21.344v42.656H256.003z M309.348,319.998h-10.689v-64h-63.993v64h-10.664c0-22.062,0-53.312,0-53.336    c0-5.891-14.328-10.665-32-10.665s-32,4.774-32,10.665c0,0.023,0,31.273,0,53.336h-14.218l-7.117-42.75l10.672-21.25h-64    l10.664,21.25l-7.117,42.75H74.668v-85.336h10.671h64h10.664h64h10.664h63.993h10.688V319.998z M106.667,213.335v-41.859    c2.82-0.461,6.422-0.812,10.672-0.812c4.242,0,7.852,0.352,10.664,0.812v41.859H106.667z M181.339,213.335v-42.672h21.328v42.672    H181.339z M259.847,213.335l6.531-39.25l0.289-1.742l0.289,1.742l6.547,39.25H259.847z M309.348,213.334h-14.219l-7.125-42.75    l10.656-21.25h-63.993l10.672,21.25l-7.117,42.75h-14.218v-64h-64v64h-10.665c0-22.062,0-53.312,0-53.336    c0-5.89-14.328-10.664-32-10.664c-17.68,0-32,4.773-32,10.664c0,0.023,0,31.273,0,53.336H74.668v-85.335h10.671h64h10.664h64    h10.664h63.993h10.688V213.334z M437.345,479.997H330.658V21.336h106.688V479.997z" fill="#012970" data-original="#000000" style=""/>
	</g>
</g>
<g xmlns="http://www.w3.org/2000/svg">
	<g>
		<path d="M352.001,191.999c-5.89,0-10.656,4.773-10.656,10.664c0,5.891,4.765,10.672,10.656,10.672s10.656-4.781,10.656-10.672    S357.892,191.999,352.001,191.999z" fill="#012970" data-original="#000000" style=""/>
	</g>
</g>
<g xmlns="http://www.w3.org/2000/svg">
	<g>
		<path d="M384.001,191.999c-5.891,0-10.656,4.773-10.656,10.664c0,5.891,4.766,10.672,10.656,10.672s10.656-4.781,10.656-10.672    S389.893,191.999,384.001,191.999z" fill="#012970" data-original="#000000" style=""/>
	</g>
</g>
<g xmlns="http://www.w3.org/2000/svg">
	<g>
		<path d="M416.001,191.999c-5.891,0-10.656,4.773-10.656,10.664c0,5.891,4.766,10.672,10.656,10.672s10.656-4.781,10.656-10.672    S421.893,191.999,416.001,191.999z" fill="#012970" data-original="#000000" style=""/>
	</g>
</g>
<g xmlns="http://www.w3.org/2000/svg">
	<g>
		<path d="M416.001,149.335h-64c-5.891,0-10.656,4.773-10.656,10.664c0,5.891,4.765,10.664,10.656,10.664h64    c5.891,0,10.656-4.773,10.656-10.664C426.658,154.109,421.892,149.335,416.001,149.335z" fill="#012970" data-original="#000000" style=""/>
	</g>
</g>
<g xmlns="http://www.w3.org/2000/svg">
	<g>
		<path d="M352.001,223.998c-5.89,0-10.656,4.773-10.656,10.664s4.765,10.672,10.656,10.672s10.656-4.781,10.656-10.672    C362.658,228.772,357.892,223.998,352.001,223.998z" fill="#012970" data-original="#000000" style=""/>
	</g>
</g>
<g xmlns="http://www.w3.org/2000/svg">
	<g>
		<path d="M384.001,223.999c-5.891,0-10.656,4.773-10.656,10.664c0,5.891,4.766,10.672,10.656,10.672s10.656-4.781,10.656-10.672    C394.658,228.772,389.893,223.999,384.001,223.999z" fill="#012970" data-original="#000000" style=""/>
	</g>
</g>
<g xmlns="http://www.w3.org/2000/svg">
	<g>
		<path d="M416.001,223.999c-5.891,0-10.656,4.773-10.656,10.664c0,5.891,4.766,10.672,10.656,10.672s10.656-4.781,10.656-10.672    C426.658,228.772,421.893,223.999,416.001,223.999z" fill="#012970" data-original="#000000" style=""/>
	</g>
</g>
<g xmlns="http://www.w3.org/2000/svg">
	<g>
		<path d="M352.001,255.998c-5.89,0-10.656,4.774-10.656,10.665c0,5.898,4.765,10.68,10.656,10.68s10.656-4.781,10.656-10.68    C362.658,260.772,357.892,255.998,352.001,255.998z" fill="#012970" data-original="#000000" style=""/>
	</g>
</g>
<g xmlns="http://www.w3.org/2000/svg">
	<g>
		<path d="M384.001,255.998c-5.891,0-10.656,4.774-10.656,10.665c0,5.898,4.766,10.68,10.656,10.68s10.656-4.781,10.656-10.68    C394.658,260.772,389.893,255.998,384.001,255.998z" fill="#012970" data-original="#000000" style=""/>
	</g>
</g>
<g xmlns="http://www.w3.org/2000/svg">
	<g>
		<path d="M416.001,255.998c-5.891,0-10.656,4.774-10.656,10.665c0,5.898,4.766,10.68,10.656,10.68s10.656-4.781,10.656-10.68    C426.658,260.772,421.893,255.998,416.001,255.998z" fill="#012970" data-original="#000000" style=""/>
	</g>
</g>
<g xmlns="http://www.w3.org/2000/svg">
	<g>
		<path d="M341.22,351.999v85.342h85.562v-85.342H341.22z M405.438,415.997h-42.875v-42.654h0.001h10.781    c0,5.875,4.766,10.656,10.656,10.656s10.656-4.781,10.656-10.656h10.781V415.997z" fill="#012970" data-original="#000000" style=""/>
	</g>
</g>
<g xmlns="http://www.w3.org/2000/svg">
	<g>
		<path d="M256.001,373.343H128.003c-17.672,0-32,14.311-32,31.998c0,17.656,14.328,32,32,32h127.999c17.672,0,32-14.344,32-32    C288.003,387.653,273.675,373.343,256.001,373.343z M256.001,415.997H128.003c-5.883,0-10.664-4.781-10.664-10.656    c0-5.891,4.781-10.688,10.664-10.688h127.999c5.883,0,10.665,4.797,10.665,10.688    C266.667,411.216,261.886,415.997,256.001,415.997z" fill="#012970" data-original="#000000" style=""/>
	</g>
</g>
<g xmlns="http://www.w3.org/2000/svg">
</g>
<g xmlns="http://www.w3.org/2000/svg">
</g>
<g xmlns="http://www.w3.org/2000/svg">
</g>
<g xmlns="http://www.w3.org/2000/svg">
</g>
<g xmlns="http://www.w3.org/2000/svg">
</g>
<g xmlns="http://www.w3.org/2000/svg">
</g>
<g xmlns="http://www.w3.org/2000/svg">
</g>
<g xmlns="http://www.w3.org/2000/svg">
</g>
<g xmlns="http://www.w3.org/2000/svg">
</g>
<g xmlns="http://www.w3.org/2000/svg">
</g>
<g xmlns="http://www.w3.org/2000/svg">
</g>
<g xmlns="http://www.w3.org/2000/svg">
</g>
<g xmlns="http://www.w3.org/2000/svg">
</g>
<g xmlns="http://www.w3.org/2000/svg">
</g>
<g xmlns="http://www.w3.org/2000/svg">
</g>
</g></svg>
